<?xml version="1.0" encoding="UTF-8"?>
<svg version="1.1" xmlns="http://www.w3.org/2000/svg" width="400" height="400">
<path d="M0 0 C2.22168041 -0.00514281 4.44335673 -0.0124268 6.6650238 -0.02168274 C12.67952851 -0.04015859 18.69358851 -0.02728186 24.70807457 -0.00759244 C31.01213448 0.00882667 37.31616695 -0.00002339 43.62023926 -0.00511169 C54.20539071 -0.00962898 64.79038546 0.00610957 75.37548828 0.03417969 C86.24893545 0.06301376 97.12213055 0.07009888 107.99560547 0.0546875 C121.12405909 0.03610534 134.25238383 0.03788594 147.38084412 0.05690193 C152.3854026 0.06376171 157.38986731 0.06275095 162.39442444 0.05535698 C168.29118277 0.0476773 174.18757946 0.05987568 180.0842762 0.08720589 C182.24412526 0.09407308 184.4040082 0.09420565 186.56385612 0.08699036 C189.52046827 0.0782539 192.475975 0.09432287 195.43249512 0.11643982 C196.70343859 0.10407867 196.70343859 0.10407867 198.0000577 0.0914678 C206.00906829 0.20145397 213.1570401 2.47420033 219.12304688 7.94360352 C243.78301138 35.04055275 226.18554688 80.99289249 226.18554688 117.63110352 C137.74554688 117.63110352 49.30554688 117.63110352 -41.81445312 117.63110352 C-41.81445312 16.03650892 -41.81445312 16.03650892 -35.75195312 9.31860352 C-25.22974672 -0.97431123 -13.88325188 -0.08156144 0 0 Z M-15.81445312 26.63110352 C-15.81445312 48.41110352 -15.81445312 70.19110352 -15.81445312 92.63110352 C55.46554688 92.63110352 126.74554688 92.63110352 200.18554688 92.63110352 C200.18554688 70.85110352 200.18554688 49.07110352 200.18554688 26.63110352 C128.90554687 26.63110352 57.62554687 26.63110352 -15.81445312 26.63110352 Z " fill="#FFFFFF" transform="translate(107.814453125,232.368896484375)"/>
<path d="M0 0 C2.71748938 -0.00089543 5.4349661 -0.00658405 8.15245056 -0.01159668 C13.82152237 -0.01882483 19.49038409 -0.00941293 25.15942383 0.00976562 C31.66876998 0.03153576 38.17761475 0.0244627 44.68694884 0.00246 C50.32575453 -0.0158208 55.96441127 -0.01819142 61.60323709 -0.00778532 C64.94928556 -0.00162052 68.29491504 -0.00214041 71.64097786 -0.01393127 C96.60742708 -0.0826318 116.4137644 3.21060281 136.77734375 18.53125 C137.45667969 19.03527344 138.13601563 19.53929688 138.8359375 20.05859375 C154.72107398 32.71534221 164.22928033 52.65849839 167.08984375 72.40625 C169.62128493 95.69550889 164.35724362 117.03945594 149.90234375 135.71875 C148.54619365 137.33888351 147.17123542 138.94347114 145.77734375 140.53125 C145.1121875 141.29179687 144.44703125 142.05234375 143.76171875 142.8359375 C130.55422731 156.97284501 110.68915568 166.86709501 91.26792908 167.62979889 C88.246645 167.67521202 85.22670505 167.6892359 82.20507812 167.69238281 C81.05772186 167.69734772 79.9103656 167.70231262 78.72824097 167.70742798 C74.94251905 167.72199927 71.15683908 167.72884438 67.37109375 167.734375 C64.72660319 167.74013198 62.08211263 167.74588964 59.43762207 167.75164795 C54.60059064 167.76120527 49.76356816 167.76711016 44.92652845 167.7701447 C37.84618091 167.77461299 30.7660276 167.79211057 23.68573904 167.8211453 C18.18646665 167.84289969 12.68724833 167.85285635 7.18793344 167.85418582 C3.91615217 167.85522464 0.64459324 167.86242353 -2.62715149 167.87900543 C-31.50083982 168.01486063 -55.02284107 163.65877352 -76.47265625 142.84375 C-90.84527295 128.26959327 -99.13365807 108.9499658 -100.22265625 88.53125 C-100.26390625 87.8403125 -100.30515625 87.149375 -100.34765625 86.4375 C-101.01946628 63.93186395 -92.69456698 43.19249993 -78.03515625 26.41015625 C-56.32817617 3.53254974 -30.19246131 -0.10648607 0 0 Z M-60.86328125 45.78125 C-70.80702238 57.37130588 -75.12430315 71.78977217 -74.60546875 86.95703125 C-72.78404075 103.96322126 -66.11599689 118.10827444 -53.22265625 129.53125 C-36.59860782 142.33343805 -19.24583094 142.13542192 0.90234375 142.0625 C3.53922671 142.06519949 6.1761087 142.06908571 8.81298828 142.07409668 C14.32006993 142.0813346 19.82693566 142.07188779 25.33398438 142.05273438 C31.66324485 142.03097284 37.99198956 142.03802698 44.32123756 142.06004 C50.458347 142.08051466 56.5952313 142.0781757 62.73236084 142.06651306 C65.32208327 142.06386185 67.91181905 142.0670584 70.50152588 142.07643127 C92.45086426 142.13845573 108.89356298 140.40528706 125.5234375 124.81640625 C136.63922134 113.54650409 141.7789294 99.79582993 142.15234375 84.03125 C141.69900804 65.65226496 134.7831779 52.03614617 121.77734375 39.53125 C108.6026768 27.91888869 93.26302376 25.37776116 76.23144531 25.38598633 C75.2171344 25.38262772 74.20282349 25.3792691 73.15777588 25.37580872 C69.82782747 25.36636438 66.4979297 25.36435886 63.16796875 25.36328125 C60.83542867 25.36006404 58.50288879 25.35669963 56.17034912 25.35319519 C51.28836601 25.34722013 46.40640057 25.34535361 41.52441406 25.34594727 C35.29649346 25.34604877 29.06868716 25.33240119 22.84079361 25.31517506 C18.02438852 25.30400708 13.20801064 25.30202953 8.39159393 25.30255699 C6.09689694 25.30138393 3.80219908 25.29700037 1.50751495 25.28922462 C-22.94484168 25.21412339 -43.05294263 27.19654883 -60.86328125 45.78125 Z " fill="#FFFFFF" transform="translate(166.22265625,49.46875)"/>
<path d="M0 0 C2.61539601 3.64570353 3.36732594 6.4126869 3.0625 10.875 C2.03234974 14.80049683 0.37030558 18.39414582 -2.9375 20.875 C-6.66601342 22.11783781 -10.06496761 22.4030726 -13.9375 21.875 C-18.26527286 19.67028552 -21.20085482 17.47200194 -22.9375 12.875 C-23.22308507 8.20178969 -22.61459158 4.21987334 -19.75 0.4375 C-13.25907153 -5.47645705 -6.84735893 -4.95340859 0 0 Z " fill="#FFFFFF" transform="translate(259.9375,124.125)"/>
<path d="M0 0 C2.61539601 3.64570353 3.36732594 6.4126869 3.0625 10.875 C2.03234974 14.80049683 0.37030558 18.39414582 -2.9375 20.875 C-6.66601342 22.11783781 -10.06496761 22.4030726 -13.9375 21.875 C-18.26527286 19.67028552 -21.20085482 17.47200194 -22.9375 12.875 C-23.22308507 8.20178969 -22.61459158 4.21987334 -19.75 0.4375 C-13.25907153 -5.47645705 -6.84735893 -4.95340859 0 0 Z " fill="#FFFFFF" transform="translate(159.9375,124.125)"/>
</svg>
